<svg height="64" width="64" xmlns="http://www.w3.org/2000/svg" xmlns:xlink="http://www.w3.org/1999/xlink"><linearGradient gradientTransform="translate(-2192 -2908)" gradientUnits="userSpaceOnUse" id="a" x1="2256.029" x2="2224.03" y1="2972" y2="2940.001"><stop offset=".316" stop-color="#fff" stop-opacity="0"/><stop offset=".351" stop-color="#e9e9e9" stop-opacity=".05"/><stop offset=".454" stop-color="#acacac" stop-opacity=".202"/><stop offset=".557" stop-color="#787878" stop-opacity=".352"/><stop offset=".657" stop-color="#4d4d4d" stop-opacity=".498"/><stop offset=".753" stop-color="#2b2b2b" stop-opacity=".638"/><stop offset=".844" stop-color="#131313" stop-opacity=".772"/><stop offset=".929" stop-color="#050505" stop-opacity=".896"/><stop offset="1"/></linearGradient><path fill="url(#a)" opacity=".2" d="M64.029 64V30.059L49 15.029 15.059 48.971 30.088 64z"/><circle cx="32" cy="32" fill="#6441A5" r="24"/><defs><circle cx="32.029" cy="32" id="b" r="24"/></defs><clipPath id="c"><use overflow="visible" xlink:href="#b"/></clipPath><linearGradient gradientTransform="matrix(1 0 0 -1 -274 -299)" gradientUnits="userSpaceOnUse" id="d" x1="347.501" x2="293.501" y1="-370.498" y2="-316.499"><stop offset=".495" stop-opacity="0"/><stop offset=".617"/></linearGradient><path clip-path="url(#c)" fill="url(#d)" opacity=".3" d="M77.895 49v-.105h-.108v-.108h-.105v-.105h-.107v-.107h-.106v-.106h-.108v-.108h-.105v-.105h-.108v-.108h-.105v-.105h-.105v-.105h-.107v-.108h-.106v-.105h-.107v-.107h-.106v-.106h-.108v-.108h-.105v-.105h-.108v-.108h-.104v-.105h-.107v-.106h-.106v-.106h-.106v-.106h-.107v-.107h-.106v-.106h-.107v-.107h-.105v-.106h-.107v-.106h-.107v-.106h-.106v-.107h-.106v-.106h-.106v-.106h-.107v-.107h-.106V45.6h-.106v-.109h-.107v-.105h-.106v-.107h-.106v-.106h-.107v-.107h-.106v-.106h-.106v-.106h-.106v-.107h-.107v-.106h-.106v-.106h-.105v-.105h-.108v-.108h-.106v-.106h-.107v-.107h-.105v-.105h-.108v-.108h-.105v-.105h-.105v-.105h-.108v-.108h-.105v-.105h-.108v-.108h-.105v-.105h-.108v-.108h-.105v-.105h-.108v-.108h-.105v-.105h-.105v-.105h-.108v-.108h-.105v-.105h-.108v-.107h-.106v-.106h-.107v-.108h-.105v-.105h-.108v-.108h-.105v-.105h-.106v-.106h-.107v-.106h-.105v-.106h-.107v-.107h-.106v-.106h-.108v-.107h-.105v-.106h-.106v-.108h-.107v-.105h-.107v-.106h-.105v-.107h-.106v-.105h-.107v-.107h-.106v-.106h-.107v-.107h-.106v-.106h-.108v-.106h-.104v-.107h-.107v-.106h-.106v-.106h-.106v-.106h-.107v-.107h-.106v-.106h-.107v-.106h-.104v-.105h-.108v-.108h-.107v-.106H67.9V38.9h-.106v-.106h-.106v-.106h-.107v-.106h-.104v-.105h-.108v-.108h-.107v-.105h-.106v-.108h-.106v-.106h-.107v-.107h-.106v-.106h-.107v-.107h-.105v-.105h-.107v-.107h-.106v-.106h-.105v-.105h-.108v-.108h-.106v-.106h-.107v-.107h-.105v-.105h-.108v-.108h-.105v-.105h-.105v-.105h-.108v-.108h-.105v-.105h-.108v-.108h-.105v-.105h-.108v-.108h-.105v-.105h-.108v-.108h-.105v-.105h-.107v-.106h-.106v-.107h-.105v-.105h-.108v-.107h-.105v-.106h-.107v-.107h-.106v-.106h-.108v-.108h-.105v-.105h-.106v-.108h-.107v-.104h-.105v-.106h-.107v-.107h-.106v-.106h-.107v-.107h-.106v-.106h-.106v-.108h-.107v-.105h-.106v-.106h-.106v-.106h-.106v-.106h-.107v-.107h-.106v-.106h-.106v-.107h-.107v-.106h-.106v-.108h-.106v-.104h-.107v-.107h-.106v-.106h-.107v-.107h-.106v-.106h-.104v-.105h-.108v-.107h-.105v-.106h-.108v-.107h-.106v-.106h-.107v-.107h-.106v-.106h-.107v-.107h-.105v-.105h-.105v-.107h-.108v-.106h-.105v-.106h-.108v-.107h-.106v-.106h-.107v-.107h-.105v-.105h-.108v-.107h-.105v-.106h-.107v-.107h-.106v-.106h-.105v-.106h-.108v-.106h-.105v-.107h-.108v-.106h-.105v-.106h-.108v-.107h-.105v-.106h-.107v-.107h-.106v-.105h-.105v-.107h-.108v-.106h-.105v-.107h-.107v-.106h-.106v-.106h-.108v-.107h-.105v-.106h-.106v-.106h-.106v-.107h-.106v-.106h-.108v-.106h-.105v-.106h-.107v-.107h-.106v-.106h-.106v-.106h-.106v-.107h-.109v-.106h-.105v-.107h-.105v-.105h-.107v-.107H56.1V27.1h-.107v-.107h-.106v-.106h-.106v-.106h-.107v-.107h-.106v-.106h-.106v-.106h-.107v-.106h-.106v-.107h-.106v-.106h-.107v-.107h-.104v-.105h-.108v-.107h-.106v-.106h-.107v-.107h-.105v-.106h-.108v-.106h-.106v-.107h-.106v-.105h-.106v-.107h-.105v-.106h-.108v-.107h-.105v-.106h-.108v-.107h-.106v-.106h-.107v-.106h-.105v-.107h-.107v-.106h-.106v-.106h-.105v-.106h-.108v-.107h-.105v-.106h-.108v-.106h-.105v-.106h-.108v-.107h-.105v-.106h-.108v-.107h-.105v-.106h-.105v-.106h-.108v-.107h-.105v-.106h-.107v-.106h-.106v-.106h-.108v-.107h-.105v-.106h-.108v-.107h-.105v-.106h-.105v-.106h-.107v-.106h-.106v-.107h-.107v-.106h-.106v-.106h-.108v-.106h-.105v-.107h-.108v-.106h-.105v-.107h-.106v-.106h-.106v-.106h-.106v-.106h-.107v-.106h-.106v-.107h-.108v-.106h-.105v-.107h-.106v-.106h-.106v-.106h-.107v-.107h-.106v-.106h-.106v-.106h-.106v-.106h-.105v-.107h-.108v-.106h-.107v-.107h-.106v-.106h-.106v-.106h-.107v-.107h-.105v-.106h-.106v-.106h-.107v-.106h-.107v-.107H47.7v-.106h-.104v-.106h-.108v-.106h-.106v-.107h-.107v-.106h-.105v-.107h-.107v-.106h-.106v-.106h-.105v-.106h-.108v-.107h-.105v-.106h-.108v-.107h-.105v-.105h-.108v-.107h-.105v-.106h-.108v-.107H46V17H20l-2 5.132V43h.106v.105h.106v.108h.107v.105h.107v.108h.105v.105h.107v.108h.107v.105h.105v.106h.107v.107h.106v.106h.106v.107h.107v.105h.106v.107h.106v.106h.107v.108h.106v.105h.106v.106h.107v.107h.107v.107h.105v.106h.106v.105h.107v.107h.106v.106h.106v.106h.106v.107h.107v.106h.107v.106h.106v.109h.106v.104h.106v.106h.107v.107h.106v.106h.106v.106h.106v.106h.107v.109h.107v.104h.105v.107h.107v.106h.106v.106h.106v.106h.107v.105h.106v.108h.106v.105h.107v.108h.106v.106h.106v.107h.107v.106h.106v.107h.106v.105h.106v.105h.107v.108h.106v.105h.107v.108h.106v.106h.106v.107h.106v.105h.107v.108h.106v.105h.106v.105h.107v.108h.106v.105h.106v.108h.107v.105h.106v.108h.106v.105h.107v.108h.106v.105h.106v.106h.106v.106h.107v.106h.106v.108h.106v.105h.107v.107h.106v.106h.107v.108h.106v.105h.107v.106h.105v.107h.106v.105h.107v.108h.106v.105h.107v.107h.106v.106h.107v.108h.106v.104h.106v.107h.106v.107h.106v.105h.107v.107h.106v.106h.107v.107h.106v.106h.106v.106h.106v.106h.107v.107h.106v.107h.107v.106h.106v.105h.106v.107h.107v.107h.105v.104h.107v.108h.106v.106h.107v.107h.106v.106h.106v.107h.106v.106h.107v.106h.106v.106h.106v.105h.107v.108h.106v.106h.106v.107h.106v.105h.107v.108h.106v.106h.106v.105h.107v.107h.106v.105h.107v.108h.106v.105h.106v.108h.106v.105h.107v.108h.106v.105h.107v.106h.106v.107h.106v.105h.106v.108h.106v.105h.107v.107h.107v.106h.106v.108h.106v.105h.107v.106h.106v.107h.105v.105h.107v.107h.106v.106h.107v.107h.106v.106h.106v.106h.107v.107h.108v.106h.104v.107h.106v.105h.107v.107h.106v.106h.107v.107h.106v.106h.108v.106h.105v.107h.106v.106h.106v.106h.107v.107h.106v.106h.106v.106h.106v.106h.105v.105h.108v.108h.106v.106h.107v.107h.106v.106h.107v.107h.106v.105h.106v.105h.106v.108h.105v.105h.108v.108h.106v.106h.107v.107h.105v.105h.108v.108h.105v.105h.106v.106h.107v.107h.105v.105h.108v.108h.105v.105h.108v.108h.105v.105h.108v.108h.105v.105h.108v.108h.105v.105h.105v.105h.108v.108h.105v.105h.107v.107h.106v.106h.108v.108h.105v.105h.108v.108h.105v.105h.105v.105h.108v.107h.105v.106h.107v.107h.106v.106h.108v.108h.105v.105h.106v.106h.106v.107h.107v.106h.106v.106h.106v.106h.106v.107h.107v.106h.108v.108h.105v.105h.106v.106h.106v.106h.107v.107h.106v.106h.106v.106h.106v.107h.107v.106h.106v.106h.106v.106h.107v.107h.106v.106h.107v.107h.106v.106h.106v.106h.106v.106h.105v.105h.108v.108h.105v.106h.108v.107h.106v.106h.107v.107h.105v.105h.107v.107h.106v.106h.105v.105h.108v.108h.105v.105h.108v.107h.106v.107h.107v.107h.105v.105h.108v.108h.105v.105h.105v.105h.108v.108h.105v.105h.107v.107h.106v.106h.108v.108h.105v.105h.108v.108h.105v.105h.105v.105h.108v.107h.105v.106h.107v.107h.106v.106h.108v.108h.105v.105h.106v.106h.106v.106h.107v.107h.106v.106h.106v.106h.107v.107h.106v.106h.108v.106h.105v.106h.106v.109h.106v.104h.107v.107h.106v.106h.106v.106h.107v.106h.104v.107h.108v.106h.106v.106h.107v.107h.106v.106h.107v.107h.106v.106h.106v.106h.107v.106h.104v.105h.108v.108h.105v.105h.108v.108h.106v.106h.107v.107h.105v.105h.108v.108h.105v.105h.105v.105h.108v.108h.105v.105h.108v.108h.106v.105h.107v.108h.105v.105h.108v.108H50V75h3.066v.066h.107v.107h.106v.106h.106v.107h.107v.105h.106v.107h.106v.106h.107v.107h.106v.106h.106v.106h.107v.107h.106v.106h.107v.106h.105v.106h.107v.107h.106v.106h.107v.107h.106v.106h.106v.106h.106v.106h.105v.105h.108v.108h.105v.105h.108v.108h.106v.106h.107v.107h.105v.106h.108v.107h.105v.105h.105v.105h.108v.108h.105v.105h.108v.108h.105v.105h.108v.108h.105v.105h.108v.108H57V79h4l3-4h6l8-8V49z"/><g fill="#FFF"><path d="M38 43h-6l-3 4h-4v-4h-7V22.132L20 17h26v18l-8 8zm5-9V20H22v19h6v4l4-4h6l5-5z"/><path d="M35 25h3v8h-3zm-6 0h3v8h-3z"/></g></svg>